<svg width="157" height="143" viewBox="0 0 157 143" fill="none" xmlns="http://www.w3.org/2000/svg">
<g filter="url(#filter0_f)">
<path d="M81.2263 14.75C83.8938 13.8608 87.6485 13.5097 90.3235 14.6111C92.3639 15.4513 92.4219 15.9149 90.9763 17.6667C89.1021 19.9377 87.1002 22.2622 84.4763 23.6806C84.1182 23.8741 83.7298 24.1555 83.3513 23.8611C81.5274 22.4425 83.7841 20.0183 84.5874 18.75C85.0637 17.9979 86.423 14.485 87.6707 16C88.391 16.8747 90.5453 16.5744 91.5874 16.7639C93.2678 17.0694 94.3975 18.0354 95.8235 18.9861C97.1546 19.8736 98.5004 20.7806 99.5596 22.0556C102.386 25.4583 99.6815 27.5615 97.5041 30.3611C96.5298 31.6137 95.2718 31.4065 93.7679 31.5139C92.8109 31.5823 92.2115 31.896 91.3235 31.4861C90.016 30.8827 88.4842 30.1076 87.0318 30C85.6681 29.899 84.582 29.25 83.2263 29.25C78.9146 29.25 74.8809 30.6401 71.0179 32.4722C67.1316 34.3154 62.5472 36.3312 59.6152 39.5972C57.6212 41.8183 56.1561 44.4882 54.4346 46.9167C51.6779 50.8057 49.334 52.9236 44.3096 52.5833C40.2038 52.3053 37.3041 50.2069 35.0318 46.8889C32.5674 43.2903 31.5837 40.2431 31.8652 35.9445C31.9577 34.5304 31.7293 33.1678 31.1291 31.875C30.8875 31.3547 30.7187 31.5499 31.3929 31.3611C34.263 30.5575 36.8447 28.5183 39.3652 27C41.056 25.9814 42.7771 24.9617 44.5318 24.0556C46.1207 23.2351 47.9033 23.0083 49.5041 22.25C50.4645 21.7951 51.6373 20.5 52.6707 20.5C57.6027 20.5 62.243 19.9422 67.1152 19.2778C68.5975 19.0756 70.3615 18.9338 71.5457 17.8889C71.9795 17.5061 72.2481 17.0022 72.7124 16.625C74.8125 14.9187 78.2033 14.4385 79.2263 11.6389C79.2756 11.5038 79.4004 10.5278 79.6013 10.5278C80.962 10.5278 82.3485 10.5794 83.7402 10.4583C87.6344 10.1197 91.4541 9.25746 95.3652 9.04168C101.332 8.71249 106.076 11.375 111.337 13.9722C113.699 15.138 118.141 16.5576 119.976 18.8056C120.671 19.6566 121.271 20.6121 121.921 21.5C122.78 22.6741 123.726 23.9926 123.726 25.5C123.726 26.4368 122.976 27.0942 122.976 28C122.976 28.9533 121.738 29.7092 121.171 30.25C117.739 33.5198 114.189 36.5263 110.337 39.2778C108.508 40.5844 106.65 41.8634 104.601 42.8056C104.054 43.0575 103.336 43.2619 102.851 43.6389C102.315 44.0563 102.086 44.4804 102.629 45.0556C103.528 46.007 104.794 46.7407 105.837 47.5C107.163 48.4648 108.87 50.2618 110.532 50.6528C113.054 51.2463 115.9 46.9166 117.143 45.3056C117.374 45.0062 119.783 42.6569 119.004 42C117.861 41.0353 115.162 40.9647 113.893 40.875C111.788 40.7262 109.685 40.7247 107.671 41.4167C107.169 41.5889 106.576 41.8262 106.226 42.25C104.591 44.23 107.653 46.9605 108.921 48.3056C111.263 50.7911 116.906 55.9471 120.671 53.9445C121.505 53.5008 120.82 53.2327 121.032 52.8611C121.295 52.4009 122.539 52.0309 123.004 51.8889C124.372 51.4709 125.697 51.3085 126.879 50.4167C128.523 49.176 129.668 47.4932 131.032 45.9861C131.548 45.4157 132.348 46.1758 132.837 46.4167C135.095 47.5289 137.359 48.417 139.824 48.9722C141.573 49.3664 143.413 49.3905 145.143 49.8611C147.059 50.3823 146.522 52.5454 146.365 54.1111C145.929 58.4726 145.169 62.376 146.699 66.6945C147.638 69.3462 149.386 71.7013 151.324 73.7083C151.781 74.1823 151.375 73.7778 150.907 73.7778C146.701 73.7778 142.566 74.6023 138.421 75.1945C136.396 75.4837 134.349 75.4037 132.337 75.7639C130.523 76.0889 129.667 76.4478 128.171 75.5C126.366 74.3568 123.666 74.5302 121.726 75.1945C116.385 77.0235 112.113 80.7144 108.31 84.7778C105.709 87.5565 106.226 91.5186 106.226 95.0278C106.226 96.882 103.171 97.8337 101.698 97.0972C101.258 96.8771 100.834 96.5883 100.476 96.25C100.153 95.9443 100.622 96.4277 100.671 96.6111C101.261 98.8548 101.439 102.35 100.365 104.472C97.0294 111.066 92.1113 117.393 85.8374 121.375C83.9142 122.595 81.7253 124.038 79.4902 124.597C77.715 125.041 75.8331 125.162 74.0179 125.347C73.4835 125.402 73.2824 125.317 72.8096 125.194C70.548 124.608 68.4114 123.768 66.0596 123.556C64.0601 123.375 62.249 123.91 60.2818 123.889C58.6781 123.872 56.9774 122.39 55.4346 121.847C53.6228 121.21 52 121.047 50.4624 119.903C47.0425 117.358 43.7872 114.74 40.5318 112C38.2203 110.054 35.1778 108.385 33.5318 105.806C32.0439 103.474 30.8273 101.215 31.1429 98.4028C31.599 94.34 32.3044 90.3545 32.5874 86.2639C32.8773 82.0727 32.6216 77.679 34.4763 73.7778C35.6733 71.2599 37.5317 69.8298 39.4902 68.0972C40.5747 67.1379 40.8721 65.723 40.2124 64.4861C39.2432 62.6689 39.7884 61.9979 39.9207 60.0278C40.0284 58.4245 40.0412 57.1207 39.3652 55.6667C38.3237 53.4265 37.6968 50.8528 36.2818 48.8056C33.8566 45.2967 29.8929 42.6855 28.1985 38.6806C27.4365 36.8795 29.0207 37.3277 27.2541 36.0278C25.9847 35.0938 24.1729 33.9846 23.3791 32.5695C22.7049 31.3677 22.5183 30.0099 21.6152 28.9167C20.7144 27.8263 19.1499 26.6479 17.6985 26.5556C14.1946 26.3326 5.77417 27.3569 5.12905 31.9445C4.46971 36.6331 6.4383 39.841 8.72627 43.6945C9.31575 44.6872 10.4674 45.416 11.4763 45.9445C12.2806 46.3658 13.0523 46.8014 13.8374 47.25C14.5247 47.6428 15.7078 47.5417 16.2263 48.125C17.3778 49.4205 18.5218 50.7721 19.7263 52.0556C20.9041 53.3106 22.1774 54.3899 23.4207 55.5556C23.5971 55.7209 23.7104 56.0833 23.7818 56.3056C24.3528 58.0819 23.9687 60.2104 25.2402 61.7361C25.8273 62.4407 27.1152 63.75 27.1152 63.75C27.1152 63.75 26.7383 63.5601 26.6013 63.6667C26.2528 63.9377 25.9507 64.3432 25.6013 64.6389C24.4806 65.5872 23.6425 67.0423 22.7679 68.2083C21.776 69.531 20.6172 70.7885 21.5874 72.4445C23.7305 76.1025 27.5093 79.4852 31.1707 81.5833C35.2784 83.9372 41.3239 85.8243 45.9485 84.0556C47.56 83.4392 48.4078 82.2241 49.5318 81.0417C51.0225 79.4735 52.7956 78.1331 54.6152 76.9722C56.7293 75.6234 59.3304 74.3623 61.8374 73.9445C62.3554 73.8581 63.5571 73.351 63.9763 73.875C64.1268 74.0632 64.6521 74.0937 64.8652 74.125C67.9063 74.5722 71.2743 73.8607 74.3235 73.7639C76.7456 73.687 79.2268 73.3611 81.6429 73.3611C83.0538 73.3611 84.6048 73.8695 86.0041 74.0556C87.7353 74.2858 90.1388 73.7759 91.1707 75.25C91.6327 75.9099 92.733 76.2051 93.4485 76.4028C95.7821 77.0476 98.197 77.3774 100.532 78C101.474 78.2513 100.194 82.1268 100.268 82.8333C100.296 83.1004 101.411 84.487 101.726 84.1389C102.708 83.0542 102.618 81.1877 101.976 80C101.065 78.3147 99.1084 76.9432 97.5596 75.9306C93.8929 73.5331 90.2132 72.049 85.8096 71.2778C77.392 69.8035 68.2895 69.095 59.8096 70.5278C57.5214 70.9144 55.4512 71.4441 53.4763 72.6667C51.8035 73.7022 49.3245 75.9561 47.3235 76.2639C45.4953 76.5452 43.6977 77.25 41.8374 77.25C40.4446 77.25 39.0429 76.0071 37.9763 75.1945C37.1538 74.5678 36.5412 73.2682 35.4624 73.875C34.5602 74.3825 34.4169 75.0034 33.7263 75.625C32.8319 76.43 34.0436 78.7168 33.9207 79.8056C33.3029 85.2779 31.9269 92.0733 36.2263 96.4167C39.0309 99.25 42.8636 102.047 46.4207 103.903C48.2006 104.831 49.8991 105.023 51.8652 105.111C53.4914 105.184 54.9732 104.858 56.5596 104.556C59.1016 104.07 61.4792 104.755 63.7541 106C67.4634 108.031 70.3516 112.921 71.0596 117.056C71.7646 121.173 71.9811 125.718 71.7818 129.903C71.6659 132.338 70.7175 134.109 69.3929 136.069C69.1578 136.418 68.9424 137.499 68.7263 137.139C68.4045 136.603 68.3419 135.746 68.1707 135.139C67.9611 134.396 67.2535 133.806 67.7263 133.056C69.4037 130.391 71.4433 129.262 70.7957 125.819C70.2517 122.928 68.3549 120.511 68.5318 117.528C68.6302 115.869 68.6193 114.806 67.7124 113.389C66.5835 111.625 64.6526 109.837 62.8652 108.75C59.3446 106.609 55.1442 105.665 51.3652 104.083C48.3701 102.83 45.7188 101.213 43.1152 99.2778C41.2121 97.8633 39.4538 96.3557 37.4624 95.1111C35.4325 93.8424 34.6666 92.6558 33.4902 90.4583C32.0679 87.8016 30.3113 85.4176 28.6985 82.8889C28.0703 81.9039 28.3719 81.577 29.2263 80.8611C30.6008 79.7095 32.0538 78.6748 33.3652 77.4445C34.1561 76.7023 35.0701 75.9789 34.9207 74.8333C34.7306 73.3754 35.7576 72.2506 36.6707 71.2222C37.7894 69.9622 38.9071 69.0183 39.0318 67.2222C39.2028 64.7608 38.8809 63.4079 41.3235 62.0695C46.6115 59.1719 49.4862 53.3961 55.1152 50.8333C57.7174 49.6486 60.2002 49.54 63.0041 49.4445C66.5613 49.3232 70.6814 48.6843 74.1707 49.6111C75.7562 50.0323 76.7697 51.3201 77.9207 52.3889C78.9207 53.3175 80.377 55.1916 81.8096 55.4445C82.661 55.5947 84.9428 53.4885 85.5596 53.1667C89.7982 50.9552 94.3653 49.6515 98.9207 48.2917C99.7288 48.0505 100.619 47.8461 101.337 47.3889C101.934 47.0091 100.914 45.5519 100.935 44.9583C100.976 43.767 102.573 43.0066 103.504 43.25C104.931 43.6233 106.713 43.3683 107.976 44" stroke="#D28391" stroke-width="2" stroke-linecap="round" stroke-linejoin="round"/>
</g>
<g filter="url(#filter1_f)">
<path d="M20.7263 9C18.22 13.3491 13.9763 17.3419 13.9763 22.6528C13.9763 24.9897 13.3484 28.2449 14.1291 30.5C15.2687 33.7923 18.7403 34.3303 21.7818 34.8056C28.667 35.8814 35.7049 36.2504 42.6429 36.8889C43.4772 36.9657 46.8807 37.1681 47.4207 36.25C47.8226 35.5669 47.708 34.5633 47.3374 33.875C45.7829 30.988 42.19 29.4881 39.6707 27.5833C39.3622 27.3501 34.6126 23.883 35.6152 23.4444C38.3936 22.2289 41.2738 21.4264 44.2818 21.0556C48.5261 20.5323 53.0302 19.8461 57.3096 20.0139C60.2003 20.1273 63.0415 20.5 65.9485 20.5C68.3467 20.5 70.6328 20.7374 72.9207 21.5C73.6678 21.749 73.9839 21.9673 73.0179 22.2778C70.7637 23.0024 68.3454 23.27 66.0179 23.6389C63.0698 24.1061 60.1377 24.595 57.2402 25.3194C56.5962 25.4804 55.8565 25.8707 55.2263 25.5556C52.7957 24.3403 49.5917 24.75 46.9485 24.75C45.6738 24.75 46.4937 23.4916 47.1429 22.9722C48.7381 21.6961 50.3354 20.4263 51.9346 19.1528C53.9072 17.582 55.7912 17.0412 58.2541 16.375C64.924 14.5708 71.504 12.3013 78.2263 10.75" stroke="#D28391" stroke-width="2" stroke-linecap="round" stroke-linejoin="round"/>
</g>
<path d="M26.7263 8.98602C24.22 13.3351 19.9763 17.3279 19.9763 22.6388C19.9763 24.9757 19.3484 28.2309 20.1291 30.486C21.2687 33.7783 24.7403 34.3163 27.7818 34.7916C34.667 35.8674 41.7049 36.2364 48.6429 36.8749C49.4772 36.9517 52.8807 37.1541 53.4207 36.236C53.8226 35.5529 53.708 34.5493 53.3374 33.861C51.7829 30.974 48.19 29.4742 45.6707 27.5694C45.3622 27.3361 40.6126 23.8691 41.6152 23.4305C44.3936 22.2149 47.2738 21.4124 50.2818 21.0416C54.5261 20.5183 59.0302 19.8321 63.3096 19.9999C66.2003 20.1133 69.0415 20.486 71.9485 20.486C74.3467 20.486 76.6328 20.7234 78.9207 21.486C79.6678 21.7351 79.9839 21.9533 79.0179 22.2638C76.7637 22.9884 74.3454 23.2561 72.0179 23.6249C69.0698 24.0921 66.1377 24.5811 63.2402 25.3055C62.5962 25.4665 61.8565 25.8567 61.2263 25.5416C58.7957 24.3263 55.5917 24.736 52.9485 24.736C51.6738 24.736 52.4937 23.4777 53.1429 22.9582C54.7381 21.6821 56.3354 20.4123 57.9346 19.1388C59.9072 17.568 61.7912 17.0272 64.2541 16.361C70.924 14.5569 77.504 12.2873 84.2263 10.736" stroke="#260404" stroke-width="2" stroke-linecap="round" stroke-linejoin="round"/>
<g filter="url(#filter2_b)">
<path d="M81.2263 6.73603C83.8938 5.84687 87.6485 5.49569 90.3235 6.59714C92.3639 7.43731 92.4219 7.90095 90.9763 9.6527C89.1021 11.9238 87.1002 14.2483 84.4763 15.6666C84.1182 15.8602 83.7298 16.1415 83.3513 15.8471C81.5274 14.4286 83.7841 12.0043 84.5874 10.736C85.0637 9.98392 86.423 6.47098 87.6707 7.98603C88.391 8.86072 90.5453 8.56046 91.5874 8.74992C93.2678 9.05546 94.3975 10.0215 95.8235 10.9721C97.1546 11.8596 98.5004 12.7666 99.5596 14.0416C102.386 17.4443 99.6815 19.5475 97.5041 22.3471C96.5298 23.5997 95.2718 23.3925 93.7679 23.4999C92.8109 23.5683 92.2115 23.882 91.3235 23.4721C90.016 22.8687 88.4842 22.0936 87.0318 21.986C85.6681 21.885 84.582 21.236 83.2263 21.236C78.9146 21.236 74.8809 22.6261 71.0179 24.4583C67.1316 26.3015 62.5472 28.3172 59.6152 31.5833C57.6212 33.8043 56.1561 36.4742 54.4346 38.9027C51.6779 42.7917 49.334 44.9097 44.3096 44.5694C40.2038 44.2913 37.3041 42.1929 35.0318 38.8749C32.5674 35.2764 31.5837 32.2292 31.8652 27.9305C31.9577 26.5164 31.7293 25.1539 31.1291 23.861C30.8875 23.3407 30.7187 23.5359 31.3929 23.3471C34.263 22.5435 36.8447 20.5044 39.3652 18.986C41.056 17.9674 42.7771 16.9477 44.5318 16.0416C46.1207 15.2211 47.9033 14.9943 49.5041 14.236C50.4645 13.7811 51.6373 12.486 52.6707 12.486C57.6027 12.486 62.243 11.9282 67.1152 11.2638C68.5975 11.0617 70.3615 10.9198 71.5457 9.87492C71.9795 9.49214 72.2481 8.98826 72.7124 8.61103C74.8125 6.90471 78.2033 6.42453 79.2263 3.62492C79.2756 3.4898 79.4004 2.51381 79.6013 2.51381C80.962 2.51381 82.3485 2.56538 83.7402 2.44437C87.6344 2.10573 91.4541 1.24348 95.3652 1.0277C101.332 0.698508 106.076 3.361 111.337 5.95825C113.699 7.12406 118.141 8.54364 119.976 10.7916C120.671 11.6426 121.271 12.5981 121.921 13.486C122.78 14.6601 123.726 15.9787 123.726 17.486C123.726 18.4229 122.976 19.0802 122.976 19.986C122.976 20.9393 121.738 21.6952 121.171 22.236C117.739 25.5058 114.189 28.5123 110.337 31.2638C108.508 32.5704 106.65 33.8494 104.601 34.7916C104.054 35.0436 103.336 35.2479 102.851 35.6249C102.315 36.0424 102.086 36.4665 102.629 37.0416C103.528 37.993 104.794 38.7267 105.837 39.486C107.163 40.4508 108.87 42.2478 110.532 42.6388C113.054 43.2323 115.9 38.9026 117.143 37.2916C117.374 36.9922 119.783 34.643 119.004 33.986C117.861 33.0213 115.162 32.9507 113.893 32.861C111.788 32.7122 109.685 32.7108 107.671 33.4027C107.169 33.5749 106.576 33.8123 106.226 34.236C104.591 36.2161 107.653 38.9465 108.921 40.2916C111.263 42.7772 116.906 47.9331 120.671 45.9305C121.505 45.4869 120.82 45.2187 121.032 44.8471C121.295 44.3869 122.539 44.0169 123.004 43.8749C124.372 43.4569 125.697 43.2945 126.879 42.4027C128.523 41.1621 129.668 39.4793 131.032 37.9721C131.548 37.4017 132.348 38.1618 132.837 38.4027C135.095 39.5149 137.359 40.4031 139.824 40.9583C141.573 41.3524 143.413 41.3765 145.143 41.8471C147.059 42.3683 146.522 44.5314 146.365 46.0971C145.929 50.4586 145.169 54.362 146.699 58.6805C147.638 61.3322 149.386 63.6873 151.324 65.6944C151.781 66.1683 151.375 65.7638 150.907 65.7638C146.701 65.7638 142.566 66.5883 138.421 67.1805C136.396 67.4697 134.349 67.3897 132.337 67.7499C130.523 68.0749 129.667 68.4338 128.171 67.486C126.366 66.3428 123.666 66.5162 121.726 67.1805C116.385 69.0096 112.113 72.7005 108.31 76.7638C105.709 79.5425 106.226 83.5046 106.226 87.0138C106.226 88.868 103.171 89.8197 101.698 89.0833C101.258 88.8631 100.834 88.5743 100.476 88.236C100.153 87.9304 100.622 88.4137 100.671 88.5971C101.261 90.8408 101.439 94.3364 100.365 96.4583C97.0294 103.052 92.1113 109.379 85.8374 113.361C83.9142 114.582 81.7253 116.024 79.4902 116.583C77.715 117.027 75.8331 117.148 74.0179 117.333C73.4835 117.388 73.2824 117.303 72.8096 117.18C70.548 116.594 68.4114 115.754 66.0596 115.542C64.0601 115.361 62.249 115.896 60.2818 115.875C58.6781 115.858 56.9774 114.376 55.4346 113.833C53.6228 113.196 52 113.033 50.4624 111.889C47.0425 109.344 43.7872 106.726 40.5318 103.986C38.2203 102.04 35.1778 100.371 33.5318 97.7916C32.0439 95.4598 30.8273 93.2008 31.1429 90.3888C31.599 86.3261 32.3044 82.3405 32.5874 78.2499C32.8773 74.0587 32.6216 69.6651 34.4763 65.7638C35.6733 63.2459 37.5317 61.8158 39.4902 60.0833C40.5747 59.1239 40.8721 57.709 40.2124 56.4721C39.2432 54.655 39.7884 53.9839 39.9207 52.0138C40.0284 50.4105 40.0412 49.1068 39.3652 47.6527C38.3237 45.4125 37.6968 42.8388 36.2818 40.7916C33.8566 37.2827 29.8929 34.6716 28.1985 30.6666C27.4365 28.8655 29.0207 29.3138 27.2541 28.0138C25.9847 27.0798 24.1729 25.9706 23.3791 24.5555C22.7049 23.3537 22.5183 21.9959 21.6152 20.9027C20.7144 19.8123 19.1499 18.634 17.6985 18.5416C14.1946 18.3186 5.77417 19.3429 5.12905 23.9305C4.46971 28.6191 6.4383 31.8271 8.72627 35.6805C9.31575 36.6733 10.4674 37.402 11.4763 37.9305C12.2806 38.3518 13.0523 38.7874 13.8374 39.236C14.5247 39.6288 15.7078 39.5277 16.2263 40.111C17.3778 41.4065 18.5218 42.7581 19.7263 44.0416C20.9041 45.2966 22.1774 46.3759 23.4207 47.5416C23.5971 47.7069 23.7104 48.0693 23.7818 48.2916C24.3528 50.0679 23.9687 52.1964 25.2402 53.7221C25.8273 54.4268 27.1152 55.736 27.1152 55.736C27.1152 55.736 26.7383 55.5462 26.6013 55.6527C26.2528 55.9238 25.9507 56.3292 25.6013 56.6249C24.4806 57.5732 23.6425 59.0283 22.7679 60.1944C21.776 61.517 20.6172 62.7746 21.5874 64.4305C23.7305 68.0885 27.5093 71.4712 31.1707 73.5694C35.2784 75.9232 41.3239 77.8103 45.9485 76.0416C47.56 75.4252 48.4078 74.2101 49.5318 73.0277C51.0225 71.4596 52.7956 70.1191 54.6152 68.9583C56.7293 67.6094 59.3304 66.3483 61.8374 65.9305C62.3554 65.8441 63.5571 65.337 63.9763 65.861C64.1268 66.0492 64.6521 66.0797 64.8652 66.111C67.9063 66.5583 71.2743 65.8467 74.3235 65.7499C76.7456 65.673 79.2268 65.3471 81.6429 65.3471C83.0538 65.3471 84.6048 65.8555 86.0041 66.0416C87.7353 66.2718 90.1388 65.7619 91.1707 67.236C91.6327 67.8959 92.733 68.1911 93.4485 68.3888C95.7821 69.0336 98.197 69.3634 100.532 69.986C101.474 70.2374 100.194 74.1128 100.268 74.8194C100.296 75.0864 101.411 76.473 101.726 76.1249C102.708 75.0402 102.618 73.1737 101.976 71.986C101.065 70.3007 99.1084 68.9293 97.5596 67.9166C93.8929 65.5191 90.2132 64.0351 85.8096 63.2638C77.392 61.7895 68.2895 61.081 59.8096 62.5138C57.5214 62.9004 55.4512 63.4301 53.4763 64.6527C51.8035 65.6882 49.3245 67.9421 47.3235 68.2499C45.4953 68.5312 43.6977 69.236 41.8374 69.236C40.4446 69.236 39.0429 67.9931 37.9763 67.1805C37.1538 66.5538 36.5412 65.2542 35.4624 65.861C34.5602 66.3685 34.4169 66.9894 33.7263 67.611C32.8319 68.416 34.0436 70.7028 33.9207 71.7916C33.3029 77.264 31.9269 84.0593 36.2263 88.4027C39.0309 91.2361 42.8636 94.0329 46.4207 95.8888C48.2006 96.8175 49.8991 97.0091 51.8652 97.0971C53.4914 97.17 54.9732 96.8443 56.5596 96.5416C59.1016 96.0565 61.4792 96.7407 63.7541 97.986C67.4634 100.017 70.3516 104.907 71.0596 109.042C71.7646 113.159 71.9811 117.704 71.7818 121.889C71.6659 124.324 70.7175 126.095 69.3929 128.055C69.1578 128.404 68.9424 129.485 68.7263 129.125C68.4045 128.589 68.3419 127.732 68.1707 127.125C67.9611 126.382 67.2535 125.792 67.7263 125.042C69.4037 122.377 71.4433 121.248 70.7957 117.805C70.2517 114.914 68.3549 112.497 68.5318 109.514C68.6302 107.855 68.6193 106.792 67.7124 105.375C66.5835 103.611 64.6526 101.823 62.8652 100.736C59.3446 98.5955 55.1442 97.6506 51.3652 96.0694C48.3701 94.8162 45.7188 93.1991 43.1152 91.2638C41.2121 89.8493 39.4538 88.3418 37.4624 87.0971C35.4325 85.8284 34.6666 84.6418 33.4902 82.4444C32.0679 79.7876 30.3113 77.4037 28.6985 74.8749C28.0703 73.8899 28.3719 73.563 29.2263 72.8471C30.6008 71.6955 32.0538 70.6609 33.3652 69.4305C34.1561 68.6883 35.0701 67.965 34.9207 66.8194C34.7306 65.3615 35.7576 64.2367 36.6707 63.2083C37.7894 61.9482 38.9071 61.0044 39.0318 59.2083C39.2028 56.7468 38.8809 55.3939 41.3235 54.0555C46.6115 51.158 49.4862 45.3821 55.1152 42.8194C57.7174 41.6346 60.2002 41.5261 63.0041 41.4305C66.5613 41.3092 70.6814 40.6703 74.1707 41.5971C75.7562 42.0183 76.7697 43.3062 77.9207 44.3749C78.9207 45.3035 80.377 47.1777 81.8096 47.4305C82.661 47.5807 84.9428 45.4745 85.5596 45.1527C89.7982 42.9413 94.3653 41.6375 98.9207 40.2777C99.7288 40.0365 100.619 39.8321 101.337 39.3749C101.934 38.9952 100.914 37.5379 100.935 36.9444C100.976 35.753 102.573 34.9926 103.504 35.236C104.931 35.6094 106.713 35.3543 107.976 35.986" stroke="black" stroke-width="2" stroke-linecap="round" stroke-linejoin="round"/>
</g>
<defs>
<filter id="filter0_f" x="0.000417709" y="4.01416" width="156.523" height="138.198" filterUnits="userSpaceOnUse" color-interpolation-filters="sRGB">
<feFlood flood-opacity="0" result="BackgroundImageFix"/>
<feBlend mode="normal" in="SourceGraphic" in2="BackgroundImageFix" result="shape"/>
<feGaussianBlur stdDeviation="2" result="effect1_foregroundBlur"/>
</filter>
<filter id="filter1_f" x="8.73735" y="3.99985" width="74.4891" height="37.9627" filterUnits="userSpaceOnUse" color-interpolation-filters="sRGB">
<feFlood flood-opacity="0" result="BackgroundImageFix"/>
<feBlend mode="normal" in="SourceGraphic" in2="BackgroundImageFix" result="shape"/>
<feGaussianBlur stdDeviation="2" result="effect1_foregroundBlur"/>
</filter>
<filter id="filter2_b" x="0.000417709" y="-3.99982" width="156.523" height="138.198" filterUnits="userSpaceOnUse" color-interpolation-filters="sRGB">
<feFlood flood-opacity="0" result="BackgroundImageFix"/>
<feGaussianBlur in="BackgroundImage" stdDeviation="2"/>
<feComposite in2="SourceAlpha" operator="in" result="effect1_backgroundBlur"/>
<feBlend mode="normal" in="SourceGraphic" in2="effect1_backgroundBlur" result="shape"/>
</filter>
</defs>
</svg>
